<svg width="40" height="40" viewBox="0 0 40 40" fill="none" xmlns="http://www.w3.org/2000/svg">
<g clip-path="url(#clip0_50663_698)">
<path d="M37.1711 19.7425C36.4679 19.0427 35.3313 19.0427 34.628 19.7425L33.7358 20.6348L32.2635 13.7874C33.9946 12.0902 35.5097 10.609 36.5804 9.56862C38.0117 8.19987 42.7997 0.292314 37.7189 0.010376C32.1617 0.724245 29.981 3.97931 26.2137 7.72513L19.3662 6.25637L20.2585 5.36408C20.9594 4.6613 20.9594 3.52386 20.2585 2.82101L19.3894 1.95191C18.6867 1.25101 17.5492 1.25101 16.8464 1.95191L13.7412 5.04456C10.8431 4.61091 6.80816 2.81562 4.12229 4.34679L2.43949 5.19456C1.64429 5.60735 1.33431 6.58651 1.7471 7.38171C1.9142 7.70361 2.18435 7.96023 2.5144 8.11057L18.7827 15.2882C15.3277 18.7984 12.1351 22.0392 10.5629 23.6293C10.4481 23.7458 10.3107 23.8376 10.159 23.899C10.0074 23.9604 9.84482 23.9901 9.68129 23.9862L3.44951 23.8363C2.87691 23.8227 2.318 24.0124 1.87194 24.3717C1.33657 24.907 -0.198188 25.6637 0.0213316 26.6095C0.0466782 26.8138 0.124187 27.0081 0.246396 27.1738C0.368605 27.3394 0.531399 27.4708 0.719107 27.5553L8.18762 30.946L6.30842 32.8305C6.19683 32.9445 6.13474 33.0979 6.13566 33.2574C6.13658 33.4169 6.20042 33.5695 6.31332 33.6822C6.42621 33.7949 6.57902 33.8584 6.73851 33.859C6.898 33.8596 7.05128 33.7972 7.16502 33.6854L9.04421 31.8062L12.4367 39.2711C12.5318 39.4844 12.6869 39.6654 12.883 39.7921C13.0791 39.9188 13.3078 39.9859 13.5413 39.985C14.3676 40.0814 15.1475 38.609 15.6221 38.1255C15.982 37.6797 16.1717 37.1206 16.1575 36.5479L16.0094 30.3161C16.0037 30.1508 16.0325 29.986 16.094 29.8324C16.1554 29.6788 16.2482 29.5396 16.3663 29.4238C17.9546 27.8552 21.1972 24.6608 24.7074 21.2058L31.8832 37.4866C32.0054 37.7659 32.2045 38.0046 32.4573 38.175C32.7101 38.3453 33.0062 38.4402 33.3109 38.4485C34.6475 38.5859 35.1347 36.7728 35.6434 35.8805C37.1727 33.2036 35.3739 29.1366 34.9438 26.2545L38.0347 23.1635C38.7356 22.4608 38.7356 21.3233 38.0347 20.6205L37.1711 19.7425ZM17.6959 2.80859C18.2938 2.19823 18.9969 3.36356 19.3966 3.68128C19.5064 3.79102 19.5681 3.93988 19.5682 4.09511C19.5682 4.25035 19.5066 4.39924 19.3969 4.50905L19.3966 4.50928L17.9547 5.94944L15.1565 5.34806L17.6959 2.80859ZM3.00344 7.00235C2.93195 6.97332 2.8705 6.92404 2.82663 6.86057C2.78275 6.7971 2.75837 6.7222 2.75647 6.64507C2.75457 6.56793 2.77524 6.49193 2.81593 6.42637C2.85663 6.36082 2.91558 6.30858 2.98555 6.27606C4.39518 5.26588 6.13201 4.8202 7.85389 5.02683L25.2108 8.75484C23.469 10.5394 21.5595 12.4703 19.6911 14.3709L3.00344 7.00235ZM15.5152 28.5637C15.282 28.7954 15.0984 29.0722 14.9756 29.3772C14.8529 29.6821 14.7936 30.0089 14.8013 30.3376L14.9494 36.5694C15.0423 37.2261 13.8555 38.279 13.5414 38.7698L9.95971 30.8927L12.2797 28.5727C12.3359 28.5166 12.3806 28.4499 12.411 28.3765C12.4415 28.3031 12.4572 28.2245 12.4573 28.145C12.4574 28.0655 12.4418 27.9868 12.4115 27.9134C12.3812 27.84 12.3367 27.7732 12.2805 27.717C12.2244 27.6607 12.1577 27.6161 12.0844 27.5856C12.011 27.5551 11.9323 27.5394 11.8528 27.5393C11.7734 27.5392 11.6947 27.5548 11.6212 27.5851C11.5478 27.6155 11.481 27.66 11.4248 27.7161L9.10484 30.0361L1.22244 26.4668C1.7132 26.1492 2.76611 24.957 3.42287 25.0534L9.65285 25.1998C9.98183 25.21 10.3093 25.1518 10.6147 25.0289C10.92 24.906 11.1965 24.7211 11.4267 24.4859C14.9959 20.8703 26.9669 8.72265 31.3034 4.25765C33.118 2.66388 35.3443 1.61258 37.7279 1.22383C40.7618 1.22383 36.4181 8.24971 35.7399 8.69414C31.2766 13.0378 19.1307 25.0034 15.5152 28.5637ZM34.5692 35.3202C34.0481 36.1232 33.6858 37.9006 32.9934 36.9869L25.6302 20.2993C27.5013 18.4584 29.3733 16.6185 31.2463 14.7796L34.9779 32.1436C35.2078 33.2198 35.0637 34.3423 34.5693 35.3255V35.3202H34.5692ZM37.1854 22.2927L34.6459 24.8322L34.0445 22.034L35.4847 20.5938C35.595 20.4843 35.7442 20.4229 35.8996 20.4229C36.055 20.4229 36.2042 20.4843 36.3145 20.5938C36.6303 20.999 37.7993 21.702 37.1854 22.2981V22.2927ZM35.3241 7.69833C35.3046 7.84341 35.233 7.97645 35.1227 8.07265C35.0123 8.16885 34.8708 8.22164 34.7244 8.22119C33.6662 8.14088 34.4871 6.75424 33.7625 6.23138C33.5885 6.07462 33.3802 5.9607 33.1543 5.89873C32.9285 5.83676 32.6912 5.82844 32.4616 5.87444C32.3034 5.89417 32.1439 5.8507 32.0176 5.75347C31.8913 5.65625 31.8084 5.51312 31.787 5.35518C31.7656 5.19724 31.8074 5.03723 31.9033 4.90992C31.9992 4.7826 32.1414 4.69826 32.2992 4.67521C33.6996 4.40514 35.0537 5.32142 35.3238 6.72174C35.386 7.04429 35.3861 7.37574 35.3241 7.69833Z" fill="#C16B15"/>
</g>
<defs>
<clipPath id="clip0_50663_698">
<rect width="40" height="40" fill="white"/>
</clipPath>
</defs>
</svg>
