<svg width="64" height="64" viewBox="0 0 64 64" fill="none" xmlns="http://www.w3.org/2000/svg">
<path fill-rule="evenodd" clip-rule="evenodd" d="M24.066 21.3463L24.0359 21.5535C24.0211 21.6556 23.9862 21.7537 23.9331 21.8424C23.88 21.931 23.8098 22.0084 23.7265 22.0702C23.6433 22.1319 23.5485 22.1768 23.4478 22.2023C23.347 22.2277 23.2422 22.2332 23.1392 22.2185C23.0363 22.2038 22.9372 22.1692 22.8478 22.1165C22.7583 22.0639 22.6802 21.9943 22.6179 21.9117C22.5556 21.8292 22.5103 21.7352 22.4846 21.6353C22.459 21.5353 22.4534 21.4314 22.4683 21.3293L22.4986 21.1227C22.5306 20.9184 22.6425 20.7349 22.8101 20.6119C22.9777 20.4889 23.1875 20.4365 23.3939 20.4659C23.6003 20.4954 23.7866 20.6044 23.9125 20.7692C24.0383 20.934 24.0935 21.1414 24.066 21.3463ZM42.4475 22.7935L42.4176 22.9994C42.3905 23.1864 42.2965 23.3574 42.1528 23.4812C42.009 23.6051 41.8251 23.6735 41.6346 23.6739C41.597 23.6739 41.559 23.6708 41.5206 23.6651C41.3126 23.6353 41.1252 23.5247 40.9994 23.3579C40.8736 23.191 40.8199 22.9814 40.8499 22.7752L40.88 22.5694C40.9101 22.3632 41.0214 22.1773 41.1896 22.0525C41.3577 21.9277 41.569 21.8742 41.777 21.9037C41.9849 21.9335 42.1723 22.044 42.2981 22.2109C42.4238 22.3778 42.4776 22.5873 42.4475 22.7935ZM39.8241 36.6654C43.6519 33.6734 46.07 30.612 47.5599 28.195C47.9412 27.5761 48.2965 26.9418 48.6248 26.2937C48.605 26.2424 48.5908 26.1892 48.5823 26.135C48.087 22.9452 47.5558 20.5017 47.0035 18.8724C46.695 17.963 46.4239 17.434 46.2184 17.1274L44.694 20.3379C44.6135 20.5074 44.4747 20.6428 44.3025 20.7198C44.1302 20.7968 43.9359 20.8104 43.7546 20.758C40.3464 19.7667 39.3932 21.2491 38.9434 22.6499C38.9071 22.7644 38.8443 22.869 38.7601 22.9553C38.2827 23.4484 37.5895 23.798 36.6952 23.9982C36.2671 25.038 36.2024 25.9033 36.5035 26.5759C36.8666 27.3858 37.8002 28.0225 39.2788 28.4703C39.4326 28.517 39.5685 28.6087 39.6686 28.7335C40.6763 29.9937 41.0295 31.7407 40.6904 33.7856C40.5367 34.7118 40.2437 35.681 39.8241 36.6654ZM31.8543 41.5619C33.7108 40.6695 35.3809 39.7255 36.8831 38.755C39.2388 35.2415 39.8831 31.8062 38.5636 29.8922C36.7687 29.3028 35.5894 28.4022 35.0564 27.2132C34.5264 26.0299 34.6487 24.6034 35.4203 22.9723C35.475 22.8563 35.5574 22.7554 35.6604 22.6783C35.7634 22.6013 35.8839 22.5504 36.0114 22.5301C36.6816 22.4224 37.1815 22.236 37.5013 21.9747C38.1653 20.1018 39.7563 18.2231 43.5409 19.0796L45.1944 15.5963C45.2656 15.4463 45.3828 15.3225 45.5293 15.2426C45.6757 15.1628 45.844 15.1309 46.0098 15.1517C47.002 15.2757 47.7892 16.2814 48.4871 18.3201C48.9338 19.6231 49.3635 21.4104 49.7698 23.6442C50.9061 20.4771 51.1868 17.3787 50.5236 14.7367C49.5059 10.6841 46.4637 8.46796 42.1742 8.65688C39.7639 8.76327 36.7732 10.6897 33.3102 12.9211C33.0187 13.1092 32.7269 13.2968 32.4348 13.484C32.3058 13.5668 32.1553 13.6105 32.0017 13.61C31.8481 13.6094 31.6979 13.5646 31.5696 13.4809C31.1651 13.2177 30.7677 12.9564 30.3766 12.6993C27.1158 10.5558 24.2996 8.70495 21.9721 8.58532C21.7781 8.57528 21.5839 8.57023 21.3897 8.57017C17.3726 8.57017 14.5143 10.7731 13.5023 14.684C12.8795 17.091 13.0087 19.9104 13.9209 22.8679C14.0363 21.3552 14.4256 19.9647 15.0764 18.7756C15.9518 17.1766 17.2867 15.9907 18.8348 15.4378C21.6851 14.4189 24.7915 15.6129 26.9875 18.5552C29.3583 19.5445 31.4848 19.8556 33.311 19.479C33.4207 19.4559 33.5341 19.4564 33.6436 19.4804C33.7531 19.5044 33.8561 19.5514 33.9457 19.6182C34.0355 19.6844 34.11 19.7687 34.1644 19.8655C34.2189 19.9623 34.252 20.0695 34.2615 20.18C34.5903 24.0147 33.2524 26.654 30.2856 28.0231C30.1724 28.0756 30.0484 28.1009 29.9235 28.0968C27.8011 28.0212 26.4063 29.403 25.6648 32.3169C26.3077 34.2925 26.9494 36.5974 27.5745 39.177C28.9061 40.0177 30.3313 40.8162 31.8543 41.5619ZM15.3506 26.3787C17.3653 30.3633 20.7614 34.4002 25.6145 37.862C25.1108 35.9072 24.5997 34.1407 24.0891 32.5909C24.044 32.4539 24.0377 32.3072 24.0709 32.167C25.1722 27.5407 27.7288 26.5229 29.7629 26.5229H29.7773C31.7877 25.5298 32.757 23.7665 32.7253 21.1548C30.7472 21.3557 28.5437 20.9394 26.1592 19.911C26.027 19.8542 25.9129 19.7627 25.8291 19.6465C24.0294 17.1337 21.6154 16.1129 19.3719 16.9152C17.0723 17.7364 15.6235 20.1762 15.4797 23.3111C16.4452 24.2482 17.6609 25.1494 18.5579 24.866C18.6628 24.3868 18.9102 23.1052 19.4943 19.7001C19.5103 19.5971 19.5467 19.4984 19.6015 19.4095C19.6564 19.3207 19.7285 19.2436 19.8137 19.1827C19.8988 19.1217 19.9954 19.0782 20.0977 19.0546C20.2 19.031 20.306 19.0278 20.4096 19.0452C20.5131 19.0627 20.6122 19.1003 20.7009 19.156C20.7897 19.2118 20.8663 19.2844 20.9265 19.3698C20.9866 19.4552 21.029 19.5516 21.0513 19.6534C21.0735 19.7551 21.075 19.8603 21.0559 19.9627C20.053 25.8095 20.0388 25.851 19.6356 26.0884C19.191 26.363 18.7156 26.5003 18.2102 26.5003C17.3708 26.5003 16.4488 26.1199 15.4511 25.3667L15.3506 26.3787ZM48.9112 29.015C51.9952 24.0115 53.143 18.6698 52.0604 14.3571C50.8617 9.58409 47.14 6.86603 42.1036 7.08823C39.2626 7.21358 36.1041 9.24835 32.447 11.6043C32.3013 11.6982 32.1549 11.7926 32.0081 11.8871C31.7558 11.7219 31.5037 11.5564 31.2517 11.3908C27.7971 9.11989 24.8139 7.15812 22.0535 7.01702C16.9841 6.75749 13.2141 9.47818 11.968 14.294C10.8532 18.6016 11.9469 23.9414 14.9684 28.9443C17.3978 32.9666 22.2393 38.695 31.5059 43.1412C31.6148 43.1934 31.7329 43.2199 31.8508 43.2199C31.9669 43.2199 32.0832 43.1934 32.1908 43.1431C41.5204 38.7487 46.4329 33.0348 48.9112 29.015ZM20.5897 55.4294C20.2602 53.5086 20.0805 53.0546 20.0176 52.894C18.544 49.1639 15.494 45.9206 12.5446 42.7843C11.5206 41.6955 10.5523 40.6657 9.67425 39.6405C7.67608 36.1786 7.10586 31.3786 7.97959 25.3719L7.99295 25.2774C8.13707 24.2685 8.26759 24.2723 8.44299 24.2786C8.67324 24.3806 8.84322 25.3152 8.90578 25.7132L8.91252 25.756C9.92556 32.1765 12.4498 36.6208 16.4177 38.9844C16.0831 39.6953 16.163 40.5203 16.6786 41.1702C16.7011 41.1986 16.7255 41.2244 16.7515 41.2496L23.1759 47.3905C23.3229 47.5323 23.5201 47.6114 23.7252 47.6109C23.8317 47.6111 23.9371 47.59 24.0352 47.5487C24.1332 47.5075 24.2218 47.447 24.2957 47.3709C24.5991 47.0591 24.5899 46.5616 24.2751 46.26L17.8969 40.1632C17.6791 39.8522 17.8621 39.5832 17.9945 39.4473C18.1116 39.3276 18.3193 39.1973 18.5793 39.1695C18.8009 39.1902 19.0697 39.2689 19.4073 39.444C22.2441 41.2949 24.3474 42.7698 25.659 43.8292C26.8292 44.7757 27.6792 45.8255 28.1854 46.951C28.829 48.3824 29.2332 50.4437 29.3231 52.753C29.3324 52.9905 29.3609 53.4565 29.3968 54.0472C29.4227 54.4679 29.4524 54.9534 29.4792 55.4296L20.5897 55.4294ZM30.906 52.6918C30.9144 52.9128 30.944 53.3947 30.9779 53.9513C31.0191 54.6277 31.0704 55.4684 31.105 56.1769C31.1101 56.2832 31.0935 56.3893 31.0561 56.489C31.0187 56.5887 30.9613 56.6799 30.8874 56.7569C30.8133 56.8337 30.7243 56.8949 30.6258 56.9366C30.5272 56.9784 30.4212 57 30.314 57H19.9175C19.7291 56.9999 19.5469 56.9332 19.4036 56.8119C19.2603 56.6906 19.1653 56.5226 19.1357 56.3382C18.799 54.2485 18.6086 53.6345 18.5426 53.4671C17.1792 50.0153 14.2342 46.884 11.386 43.8555C10.3307 42.7333 9.33428 41.6727 8.41941 40.6014C8.38925 40.5663 8.36228 40.5286 8.33881 40.4887C6.12951 36.7082 5.48122 31.5472 6.41185 25.1475L6.42473 25.0575C6.52746 24.3364 6.76589 22.6486 8.48966 22.7084C10.0449 22.7626 10.3434 24.6595 10.4708 25.4712L10.4775 25.5127C11.435 31.5805 13.7885 35.7055 17.4751 37.78C17.8119 37.644 18.1738 37.5796 18.5373 37.591C19.0835 37.5596 19.6759 37.7057 20.2499 38.1131C23.1457 40.0017 25.3025 41.5158 26.6599 42.6128C28.0241 43.7149 29.024 44.9588 29.6321 46.3114C30.3562 47.9213 30.8086 50.1872 30.906 52.6918ZM54.3255 39.6405C53.4474 40.6657 52.4795 41.6954 51.4555 42.7843C48.506 45.9206 45.4561 49.1639 43.9824 52.894C43.9194 53.0545 43.7398 53.5086 43.41 55.4294H34.5204C34.5475 54.9533 34.5769 54.4678 34.6028 54.0471C34.6391 53.4563 34.6673 52.9904 34.6768 52.7529C34.7666 50.4422 35.1706 48.3823 35.8144 46.9508C36.3205 45.8254 37.1705 44.7756 38.3406 43.829C39.6527 42.7698 41.7558 41.2936 44.5923 39.4439C44.93 39.2688 45.199 39.1901 45.4206 39.1694C45.6807 39.197 45.8881 39.3274 46.0054 39.4471C46.1377 39.5832 46.3208 39.8521 46.1029 40.1631L39.7249 46.2599C39.4101 46.5615 39.4006 47.0591 39.7043 47.3708C39.7781 47.4468 39.8667 47.5073 39.9647 47.5485C40.0627 47.5898 40.1681 47.6109 40.2745 47.6108C40.4798 47.6113 40.6771 47.5322 40.8242 47.3903L47.2487 41.2494C47.2748 41.2243 47.2991 41.1984 47.3214 41.1701C47.837 40.5202 47.9172 39.6952 47.5821 38.9843C51.5502 36.6208 54.0743 32.1764 55.0875 25.7559L55.0943 25.7131C55.1566 25.3151 55.3268 24.3805 55.5658 24.2778C55.7316 24.2715 55.863 24.2671 56.0069 25.2773L56.0205 25.3717C56.8941 31.3786 56.3239 36.1786 54.3255 39.6405ZM57.5881 25.1476L57.5753 25.0576C57.4723 24.3365 57.2306 22.65 55.5103 22.7085C53.9551 22.7627 53.6565 24.6596 53.529 25.4713L53.5226 25.5128C52.5648 31.5806 50.2116 35.7056 46.5247 37.7801C46.1878 37.6435 45.8255 37.5791 45.4617 37.5912C44.9159 37.5597 44.3237 37.7058 43.75 38.1132C40.8546 40.0019 38.6979 41.5159 37.3402 42.6129C35.976 43.715 34.9761 44.9589 34.3677 46.3115C33.6438 47.9212 33.1914 50.1871 33.0941 52.6917C33.0855 52.9127 33.0562 53.3946 33.0222 53.9512C32.9807 54.6276 32.9294 55.4683 32.8949 56.1768C32.8898 56.283 32.9064 56.3892 32.9438 56.4889C32.9812 56.5886 33.0386 56.6797 33.1125 56.7568C33.1866 56.8336 33.2756 56.8947 33.3741 56.9365C33.4727 56.9782 33.5787 56.9998 33.6859 56.9999H44.0823C44.2707 56.9997 44.4529 56.933 44.5962 56.8117C44.7395 56.6904 44.8346 56.5225 44.8643 56.338C45.201 54.2484 45.3911 53.6344 45.4574 53.467C46.8206 50.0151 49.7658 46.8839 52.6141 43.8554C53.6691 42.7332 54.6659 41.6726 55.5805 40.6013C55.6107 40.5661 55.6377 40.5284 55.6614 40.4886C57.8705 36.7082 58.5188 31.5472 57.5881 25.1476Z" fill="#C16B15"/>
</svg>
