<svg width="40" height="40" viewBox="0 0 40 40" fill="none" xmlns="http://www.w3.org/2000/svg">
<path d="M23.4906 22.0457V5.24755C23.4906 2.34937 21.1412 0 18.243 0C15.3448 0 12.9955 2.34937 12.9955 5.24755V22.0382C8.4598 24.932 7.12871 30.9549 10.0225 35.4905C10.9013 36.8679 12.1124 38.0021 13.5443 38.7888C14.9763 39.5755 16.5831 39.9895 18.2169 39.9925L18.2691 40C23.6494 39.9899 28.0026 35.6202 27.9926 30.2401C27.9895 28.6063 27.5756 26.9995 26.7888 25.5675C26.0021 24.1356 24.8679 22.9245 23.4906 22.0457ZM14.1442 37.407C10.1947 35.1268 8.84162 30.0766 11.1218 26.1273C11.8465 24.872 12.8889 23.8296 14.1442 23.1049C14.258 23.0392 14.3524 22.9445 14.4179 22.8306C14.4834 22.7166 14.5176 22.5874 14.5171 22.4559V5.24755C14.5171 3.17333 16.1986 1.49184 18.2729 1.49184C20.3471 1.49184 22.0286 3.17333 22.0286 5.24755V22.4559C22.0281 22.5874 22.0623 22.7166 22.1278 22.8306C22.1933 22.9445 22.2877 23.0392 22.4015 23.1049C26.351 25.3851 27.7041 30.4352 25.4239 34.3846C23.1437 38.3341 18.0936 39.6873 14.1442 37.407Z" fill="#C16B15"/>
<path d="M19.0167 24.8951V13.5795C19.0167 13.3816 18.9381 13.1919 18.7982 13.052C18.6583 12.9121 18.4686 12.8335 18.2708 12.8335C18.073 12.8335 17.8832 12.9121 17.7433 13.052C17.6035 13.1919 17.5249 13.3816 17.5249 13.5795V24.8951C14.7071 25.2992 12.7503 27.911 13.1544 30.7288C13.5192 33.2722 15.7014 35.1586 18.2708 35.1515C21.1174 35.1593 23.4314 32.8581 23.4394 30.0114C23.4464 27.442 21.5601 25.2598 19.0167 24.8951ZM18.2708 33.6522C16.248 33.6522 14.6083 32.0125 14.6083 29.9897C14.6124 27.9687 16.2497 26.3313 18.2708 26.3272C20.2935 26.3272 21.9333 27.967 21.9333 29.9897C21.9333 32.0125 20.2934 33.6522 18.2708 33.6522ZM30.765 5.12817H26.103C25.9051 5.12817 25.7154 5.20676 25.5755 5.34665C25.4356 5.48654 25.357 5.67626 25.357 5.87409C25.357 6.07193 25.4356 6.26165 25.5755 6.40154C25.7154 6.54143 25.9051 6.62002 26.103 6.62002H30.765C30.9628 6.62002 31.1525 6.54143 31.2924 6.40154C31.4323 6.26165 31.5109 6.07193 31.5109 5.87409C31.5109 5.67626 31.4323 5.48654 31.2924 5.34665C31.1525 5.20676 30.9628 5.12817 30.765 5.12817ZM29.7729 8.85778H27.0354C26.8375 8.85778 26.6478 8.93637 26.5079 9.07625C26.368 9.21614 26.2894 9.40587 26.2894 9.6037C26.2894 9.80153 26.368 9.99126 26.5079 10.1311C26.6478 10.271 26.8375 10.3496 27.0354 10.3496H29.7729C29.9707 10.3496 30.1604 10.271 30.3003 10.1311C30.4402 9.99126 30.5188 9.80153 30.5188 9.6037C30.5188 9.40587 30.4402 9.21614 30.3003 9.07625C30.1604 8.93637 29.9707 8.85778 29.7729 8.85778ZM30.765 12.5874H26.103C25.9051 12.5874 25.7154 12.666 25.5755 12.8059C25.4356 12.9457 25.357 13.1355 25.357 13.3333C25.357 13.5311 25.4356 13.7209 25.5755 13.8607C25.7154 14.0006 25.9051 14.0792 26.103 14.0792H30.765C30.9628 14.0792 31.1525 14.0006 31.2924 13.8607C31.4323 13.7209 31.5109 13.5311 31.5109 13.3333C31.5109 13.1355 31.4323 12.9457 31.2924 12.8059C31.1525 12.666 30.9628 12.5874 30.765 12.5874ZM29.7729 16.317H27.0354C26.8375 16.317 26.6478 16.3956 26.5079 16.5355C26.368 16.6753 26.2894 16.8651 26.2894 17.0629C26.2894 17.2607 26.368 17.4505 26.5079 17.5904C26.6478 17.7302 26.8375 17.8088 27.0354 17.8088H29.7729C29.9707 17.8088 30.1604 17.7302 30.3003 17.5904C30.4402 17.4505 30.5188 17.2607 30.5188 17.0629C30.5188 16.8651 30.4402 16.6753 30.3003 16.5355C30.1604 16.3956 29.9707 16.317 29.7729 16.317ZM30.765 20.0466H26.103C25.9051 20.0466 25.7154 20.1252 25.5755 20.2651C25.4356 20.405 25.357 20.5947 25.357 20.7925C25.357 20.9903 25.4356 21.1801 25.5755 21.32C25.7154 21.4598 25.9051 21.5384 26.103 21.5384H30.765C30.9628 21.5384 31.1525 21.4598 31.2924 21.32C31.4323 21.1801 31.5109 20.9903 31.5109 20.7925C31.5109 20.5947 31.4323 20.405 31.2924 20.2651C31.1525 20.1252 30.9628 20.0466 30.765 20.0466Z" fill="#C16B15"/>
</svg>
