<svg width="40" height="40" viewBox="0 0 40 40" fill="none" xmlns="http://www.w3.org/2000/svg">
<g clip-path="url(#clip0_50663_689)">
<path d="M0 21.3333C0.00194064 22.924 0.634705 24.449 1.7595 25.5738C2.8843 26.6986 4.4093 27.3314 6 27.3333H12.6667V34C12.6686 35.5907 13.3014 37.1157 14.4262 38.2405C15.551 39.3653 17.076 39.9981 18.6667 40H21.3333C22.924 39.9981 24.449 39.3653 25.5738 38.2405C26.6986 37.1157 27.3314 35.5907 27.3333 34V30.074C27.5518 30.0225 27.7756 29.9976 28 30C28.5976 29.988 29.1808 30.1838 29.65 30.554C30.3456 31.0725 31.1932 31.3465 32.0607 31.3333C32.6962 31.3583 33.3238 31.1851 33.8565 30.8376C34.3892 30.4902 34.8007 29.9857 35.034 29.394C35.3503 28.5041 35.4067 27.5426 35.1968 26.6218C34.9869 25.701 34.5193 24.8589 33.8487 24.194C33.298 23.6101 32.821 22.9608 32.4287 22.2607C31.5473 20.8213 30.6367 19.3333 28 19.3333C25.3633 19.3333 24.4527 20.8213 23.5713 22.26C23.179 22.9602 22.7021 23.6095 22.1513 24.1933C21.4807 24.8583 21.0131 25.7003 20.8032 26.6211C20.5933 27.5419 20.6497 28.5034 20.966 29.3933C21.1992 29.9851 21.6107 30.4898 22.1434 30.8374C22.6761 31.1849 23.3037 31.3583 23.9393 31.3333C24.6658 31.3508 25.3816 31.1569 26 30.7753V34C25.9986 35.2372 25.5065 36.4234 24.6316 37.2983C23.7567 38.1731 22.5706 38.6653 21.3333 38.6667H18.6667C17.4294 38.6653 16.2433 38.1731 15.3684 37.2983C14.4935 36.4234 14.0014 35.2372 14 34V27.3333C14 26.9797 13.8595 26.6406 13.6095 26.3905C13.3594 26.1405 13.0203 26 12.6667 26H6C4.76276 25.9986 3.57659 25.5065 2.70173 24.6316C1.82686 23.7567 1.33474 22.5706 1.33333 21.3333V18.6667C1.33474 17.4294 1.82686 16.2433 2.70173 15.3684C3.57659 14.4935 4.76276 14.0014 6 14H12.6667C13.0203 14 13.3594 13.8595 13.6095 13.6095C13.8595 13.3594 14 13.0203 14 12.6667V6C14.0014 4.76276 14.4935 3.57659 15.3684 2.70173C16.2433 1.82686 17.4294 1.33474 18.6667 1.33333H21.3333C22.5706 1.33474 23.7567 1.82686 24.6316 2.70173C25.5065 3.57659 25.9986 4.76276 26 6V11.104C25.679 10.7261 25.2709 10.4321 24.8108 10.2474C24.3507 10.0627 23.8525 9.99291 23.3593 10.044C22.8831 10.1255 22.4336 10.3208 22.0491 10.6133C21.6645 10.9058 21.3563 11.2868 21.1507 11.724C20.6739 12.6768 20.5079 13.7552 20.676 14.8073C20.811 15.8644 21.2741 16.8525 22 17.6327C22.2804 17.9431 22.6209 18.1933 23.0009 18.3682C23.3809 18.543 23.7925 18.6389 24.2107 18.65C24.338 18.65 24.466 18.6407 24.592 18.6227C25.0682 18.5412 25.5177 18.3459 25.9023 18.0534C26.2868 17.7609 26.595 17.3799 26.8007 16.9427C27.1601 16.2384 27.3429 15.4573 27.3333 14.6667V6C27.3314 4.4093 26.6986 2.8843 25.5738 1.7595C24.449 0.634705 22.924 0.00194064 21.3333 0L18.6667 0C17.076 0.00194064 15.551 0.634705 14.4262 1.7595C13.3014 2.8843 12.6686 4.4093 12.6667 6V12.6667H6C4.4093 12.6686 2.8843 13.3014 1.7595 14.4262C0.634705 15.551 0.00194064 17.076 0 18.6667V21.3333ZM23.9393 30C23.5685 30.0247 23.1995 29.9299 22.8865 29.7295C22.5734 29.5292 22.3329 29.2338 22.2 28.8867C21.9902 28.2405 21.9624 27.5491 22.1197 26.8882C22.2769 26.2273 22.6131 25.6225 23.0913 25.14C23.7191 24.482 24.2628 23.7486 24.71 22.9567C25.5527 21.5773 26.1107 20.6667 28 20.6667C29.8893 20.6667 30.4473 21.5773 31.2913 22.9567C31.7385 23.7486 32.2822 24.482 32.91 25.14C33.388 25.6226 33.724 26.2275 33.881 26.8884C34.0379 27.5493 34.0099 28.2406 33.8 28.8867C33.6671 29.2338 33.4266 29.5292 33.1135 29.7295C32.8005 29.9299 32.4315 30.0247 32.0607 30C31.4528 30.0138 30.859 29.8156 30.3813 29.4393C29.6889 28.9371 28.8554 28.6667 28 28.6667C27.1446 28.6667 26.3111 28.9371 25.6187 29.4393C25.141 29.8156 24.5472 30.0138 23.9393 30ZM25.6213 16.32C25.5254 16.5786 25.3615 16.8065 25.1469 16.9797C24.9323 17.1529 24.6749 17.2651 24.4019 17.3043C24.129 17.3436 23.8504 17.3085 23.5957 17.2027C23.341 17.0969 23.1196 16.9244 22.9547 16.7033C22.4249 16.1254 22.0893 15.3962 21.9947 14.618C21.8656 13.8447 21.9821 13.0503 22.328 12.3467C22.438 12.0975 22.606 11.8783 22.818 11.7074C23.03 11.5364 23.2799 11.4187 23.5467 11.364C24.6227 11.2113 25.722 12.4393 25.9533 14.0487C25.982 14.2493 25.9973 14.452 25.998 14.6553V14.6667C26.0088 15.2402 25.8795 15.8077 25.6213 16.32Z" fill="#C16B15"/>
<path d="M17.3573 17.1133C16.034 17.7546 15.61 19.6219 16.4113 21.2766C16.6583 21.8513 17.0587 22.347 17.5687 22.7092C18.0787 23.0714 18.6786 23.2861 19.3026 23.3299C19.636 23.3313 19.9653 23.2566 20.2653 23.1119C21.5886 22.4706 22.0126 20.6026 21.2106 18.9493C20.4086 17.2959 18.6806 16.4719 17.3573 17.1133ZM19.684 21.9133C19.032 22.2293 18.084 21.6706 17.6113 20.6953C17.1386 19.7199 17.2886 18.6286 17.9386 18.3139C18.0634 18.254 18.2003 18.2237 18.3386 18.2253C18.7083 18.2759 19.0579 18.4235 19.352 18.653C19.6461 18.8825 19.8743 19.1857 20.0133 19.5319C20.484 20.5066 20.3346 21.6006 19.684 21.9133ZM31.4093 18.6226C31.536 18.6406 31.6626 18.6493 31.7906 18.6499C32.2088 18.6387 32.6203 18.5428 33.0003 18.3679C33.3802 18.193 33.7208 17.9429 34.0013 17.6326C34.7272 16.8525 35.1903 15.8643 35.3253 14.8073C35.4934 13.7551 35.3274 12.6768 34.8506 11.7239C34.645 11.2868 34.3368 10.9057 33.9522 10.6132C33.5677 10.3207 33.1182 10.1254 32.642 10.0439C30.8253 9.78261 29.066 11.4939 28.726 13.8593C28.5585 14.9114 28.7245 15.9896 29.2006 16.9426C29.4063 17.3798 29.7145 17.7608 30.099 18.0533C30.4836 18.3458 30.9331 18.5411 31.4093 18.6226ZM30.046 14.0486C30.2646 12.5306 31.2566 11.3506 32.2693 11.3506C32.3306 11.3506 32.392 11.3553 32.4526 11.3639C32.7194 11.4186 32.9693 11.5363 33.1813 11.7073C33.3933 11.8783 33.5613 12.0975 33.6713 12.3466C34.0172 13.0502 34.1337 13.8446 34.0046 14.6179C33.91 15.3962 33.5744 16.1253 33.0446 16.7033C32.8797 16.9243 32.6583 17.0969 32.4036 17.2026C32.1489 17.3084 31.8703 17.3435 31.5974 17.3043C31.3244 17.265 31.067 17.1529 30.8524 16.9796C30.6378 16.8064 30.4739 16.5785 30.378 16.3199C30.0329 15.6161 29.9168 14.8218 30.046 14.0486ZM35.7346 23.1119C36.0346 23.2566 36.364 23.3319 36.6973 23.3299C37.3214 23.286 37.9213 23.0711 38.4313 22.7088C38.9413 22.3465 39.3417 21.8507 39.5886 21.2759C40.3886 19.6219 39.966 17.7546 38.6426 17.1133C37.3193 16.4719 35.5913 17.2959 34.7893 18.9493C33.9873 20.6026 34.414 22.4706 35.7346 23.1119ZM37.668 18.2246C37.8064 18.223 37.9432 18.2534 38.068 18.3133C38.718 18.6279 38.868 19.7193 38.3953 20.6946C37.9226 21.6699 36.9726 22.2279 36.3233 21.9126C35.674 21.5973 35.5233 20.5066 35.996 19.5313C36.1348 19.1854 36.3625 18.8824 36.6561 18.653C36.9498 18.4235 37.2988 18.2757 37.668 18.2246ZM4.0013 18.6666C4.0013 18.1362 4.21202 17.6275 4.58709 17.2524C4.96216 16.8773 5.47087 16.6666 6.0013 16.6666C6.17811 16.6666 6.34768 16.5964 6.47271 16.4713C6.59773 16.3463 6.66797 16.1768 6.66797 15.9999C6.66797 15.8231 6.59773 15.6536 6.47271 15.5285C6.34768 15.4035 6.17811 15.3333 6.0013 15.3333C5.11757 15.3343 4.27034 15.6859 3.64545 16.3108C3.02056 16.9356 2.66903 17.7829 2.66797 18.6666C2.66797 18.8434 2.73821 19.013 2.86323 19.138C2.98826 19.263 3.15782 19.3333 3.33464 19.3333C3.51145 19.3333 3.68102 19.263 3.80604 19.138C3.93106 19.013 4.0013 18.8434 4.0013 18.6666ZM9.33464 16.6666C9.51145 16.6666 9.68102 16.5964 9.80604 16.4713C9.93107 16.3463 10.0013 16.1768 10.0013 15.9999C10.0013 15.8231 9.93107 15.6536 9.80604 15.5285C9.68102 15.4035 9.51145 15.3333 9.33464 15.3333H8.66797C8.49116 15.3333 8.32159 15.4035 8.19657 15.5285C8.07154 15.6536 8.0013 15.8231 8.0013 15.9999C8.0013 16.1768 8.07154 16.3463 8.19657 16.4713C8.32159 16.5964 8.49116 16.6666 8.66797 16.6666H9.33464Z" fill="#C16B15"/>
</g>
<defs>
<clipPath id="clip0_50663_689">
<rect width="40" height="40" fill="white"/>
</clipPath>
</defs>
</svg>
