<svg width="64" height="64" viewBox="0 0 64 64" fill="none" xmlns="http://www.w3.org/2000/svg">
<path d="M18.1155 49.0689C18.2896 49.211 18.5075 49.2886 18.7322 49.2884C18.9341 49.2885 19.1311 49.2261 19.2961 49.1097C19.4611 48.9934 19.586 48.8288 19.6537 48.6386C19.7214 48.4484 19.7286 48.2419 19.6742 48.0474C19.6198 47.853 19.5066 47.6801 19.35 47.5526C16.4618 45.2014 14.3304 42.156 13.1157 38.7522C16.7929 39.4964 20.5733 40.0186 24.4194 40.3144C24.5985 42.0797 24.8354 43.7769 25.1272 45.3736C25.1738 45.6287 25.3198 45.8548 25.5331 46.0022C25.6387 46.0752 25.7577 46.1267 25.8832 46.1537C26.0087 46.1807 26.1383 46.1827 26.2646 46.1596C26.3909 46.1366 26.5114 46.0888 26.6193 46.0192C26.7271 45.9496 26.8202 45.8593 26.8932 45.7537C26.9662 45.6481 27.0176 45.5291 27.0446 45.4036C27.0717 45.2781 27.0737 45.1485 27.0506 45.0222C26.7861 43.5749 26.5681 42.0411 26.3988 40.4463C27.998 40.5364 29.5992 40.5877 31.2009 40.6003H31.2088C31.4668 40.6002 31.7142 40.4982 31.8973 40.3166C32.0803 40.1349 32.1842 39.8883 32.1862 39.6304C32.1883 39.3711 32.0873 39.1216 31.9054 38.9368C31.7235 38.7521 31.4757 38.6471 31.2165 38.645C29.5487 38.632 27.8816 38.5761 26.2168 38.4772C26.0514 36.3834 25.9663 34.2067 25.9663 31.9996C25.9663 30.1734 26.0237 28.381 26.1341 26.6496C28.0854 26.7795 30.0405 26.8441 31.996 26.8432C33.9669 26.8432 35.9232 26.7776 37.8561 26.6473C37.9488 28.0934 38.0034 29.5417 38.02 30.9906C38.023 31.2479 38.1273 31.4936 38.3102 31.6744C38.4932 31.8553 38.74 31.9568 38.9973 31.9568H39.0089C39.2682 31.9538 39.5156 31.8479 39.6968 31.6624C39.878 31.477 39.978 31.2272 39.975 30.9679C39.958 29.4751 39.901 27.983 39.8043 26.4933C41.9787 26.2957 44.119 26.015 46.2127 25.6521C46.3392 25.6302 46.4601 25.5835 46.5686 25.5149C46.6771 25.4462 46.771 25.3568 46.8449 25.2519C46.9188 25.1469 46.9714 25.0284 46.9995 24.9032C47.0277 24.7779 47.0309 24.6483 47.009 24.5218C46.9168 23.9899 46.4106 23.633 45.8787 23.7255C43.8451 24.078 41.7658 24.3511 39.6527 24.5437C39.2359 19.9324 38.4378 15.795 37.3481 12.6737C41.4363 13.7976 45.0856 16.2051 47.7821 19.6458C47.942 19.8499 48.1765 19.9821 48.4339 20.0133C48.6913 20.0446 48.9505 19.9723 49.1546 19.8123C49.2557 19.7332 49.3401 19.6348 49.4032 19.523C49.4663 19.4112 49.5067 19.288 49.5221 19.1606C49.5376 19.0331 49.5278 18.9039 49.4933 18.7802C49.4588 18.6566 49.4002 18.5409 49.321 18.4399C45.1173 13.0762 38.8026 10 31.9957 10C30.6892 9.99954 29.3853 10.1152 28.0993 10.3455C28.07 10.3495 28.041 10.3548 28.0123 10.3614C20.7829 11.6892 14.7777 16.5625 11.8744 23.106C11.8437 23.161 11.8184 23.2187 11.7988 23.2785C10.6394 25.9537 9.99609 28.9033 9.99609 31.9996C9.99609 38.6468 12.9556 44.8683 18.1155 49.0689ZM28.9163 12.1914C29.9352 12.0339 30.9647 11.9549 31.9957 11.9552C33.0367 11.9552 34.0652 12.0342 35.0739 12.1888C36.3322 15.2309 37.2511 19.6552 37.7054 24.6977C35.8049 24.825 33.9006 24.8884 31.9958 24.8879C30.0655 24.8879 28.1594 24.825 26.2831 24.6999C26.7338 19.66 27.6484 15.2537 28.9163 12.1914ZM26.6397 12.6818C25.5446 15.8128 24.7502 19.9368 24.3364 24.5467C20.8139 24.2268 17.4018 23.6829 14.1289 22.9184C16.6565 17.9662 21.1845 14.1963 26.6397 12.6818ZM11.9513 31.9996C11.9513 29.4389 12.4343 26.9881 13.3135 24.7349C16.7955 25.568 20.431 26.1565 24.1862 26.4963C24.0686 28.3284 24.0102 30.1638 24.0109 31.9996C24.0109 34.1547 24.0902 36.2837 24.2451 38.3394C20.2353 38.0172 16.3018 37.4438 12.4872 36.6238C12.1304 35.1083 11.9506 33.5565 11.9513 31.9996ZM46.1758 12.2317C47.7865 11.8682 49.9536 11.6826 51.1333 12.8622C52.5122 14.2411 52.3052 17.3427 50.5653 21.3717C48.7825 25.5 45.5502 30.288 41.418 34.9344C40.6512 34.3705 39.7239 34.0668 38.772 34.0678C36.301 34.0678 34.2907 36.0781 34.2907 38.5491C34.2907 41.0201 36.301 43.0304 38.772 43.0304C41.243 43.0304 43.2533 41.0201 43.2533 38.5491C43.2542 37.8051 43.0687 37.0728 42.7138 36.4189C47.0602 31.5624 50.4734 26.5163 52.3603 22.1469C54.4958 17.2019 54.5495 13.5131 52.516 11.4796C51.5175 10.481 49.5322 9.47002 45.7458 10.3244C45.6205 10.3526 45.5021 10.4052 45.3972 10.4793C45.2923 10.5533 45.203 10.6473 45.1344 10.7558C45.0659 10.8643 45.0193 10.9853 44.9975 11.1118C44.9757 11.2383 44.979 11.3679 45.0073 11.4931C45.1261 12.0198 45.6493 12.3507 46.1758 12.2317ZM38.7719 41.0752C37.379 41.0752 36.2459 39.942 36.2459 38.5491C36.2459 37.1562 37.379 36.0231 38.7719 36.0231C40.1648 36.0231 41.298 37.1562 41.298 38.5491C41.298 39.942 40.1648 41.0752 38.7719 41.0752ZM34.1969 44.6275C29.5922 48.4395 24.8893 51.3581 20.9544 52.8457C18.918 53.6155 17.1157 53.9998 15.5848 53.9998C13.8489 53.9998 12.4618 53.5059 11.4757 52.5198C10.4818 51.5259 9.47296 49.5514 10.3114 45.7898C10.429 45.2628 10.9516 44.9308 11.4784 45.0483C11.7314 45.1047 11.9518 45.2593 12.0908 45.4781C12.2299 45.697 12.2763 45.9621 12.22 46.2151C11.8638 47.8131 11.6854 49.9642 12.8583 51.1372C14.1118 52.3908 16.7415 52.3479 20.263 51.0167C24.0015 49.6035 28.5072 46.7994 32.95 43.1213C33.1503 42.9616 33.4053 42.8869 33.6602 42.9133C33.915 42.9397 34.1494 43.065 34.3127 43.2624C34.4761 43.4597 34.5555 43.7133 34.5338 43.9686C34.5122 44.2239 34.3912 44.4605 34.1969 44.6275ZM53.5555 27.6022C53.8483 29.0497 53.9958 30.5228 53.9957 31.9996C53.9957 33.9536 53.7395 35.8493 53.2592 37.6541C53.2522 37.6868 53.2435 37.7193 53.2332 37.7512C51.0378 45.8479 44.3237 52.1063 35.9779 53.6384C35.9501 53.6447 35.922 53.6498 35.8938 53.6537C34.6073 53.8843 33.3029 54 31.9959 53.9995C30.3977 53.9999 28.8041 53.8272 27.243 53.4845C26.9898 53.4287 26.7691 53.2747 26.6295 53.0562C26.4898 52.8377 26.4427 52.5727 26.4985 52.3195C26.5542 52.0663 26.7083 51.8456 26.9268 51.706C27.1453 51.5663 27.4103 51.5192 27.6635 51.575C29.0865 51.8873 30.5392 52.0447 31.996 52.0442C33.0431 52.0442 34.071 51.9636 35.075 51.8082C35.7359 50.2057 36.3249 48.1507 36.7886 45.8237C36.8415 45.5715 36.9917 45.3504 37.2066 45.2084C37.4216 45.0663 37.6839 45.0149 37.9366 45.0653C38.1893 45.1156 38.4118 45.2637 38.5559 45.4773C38.7 45.6908 38.754 45.9527 38.7061 46.2058C38.323 48.1284 37.8697 49.8397 37.3525 51.3178C43.6344 49.5738 48.6853 44.8408 50.8699 38.7535C49.3464 39.0613 47.8152 39.33 46.2778 39.5592C46.0214 39.5975 45.7602 39.5323 45.5518 39.378C45.3435 39.2237 45.2049 38.9929 45.1667 38.7364C45.1284 38.48 45.1936 38.2188 45.3479 38.0105C45.5022 37.8021 45.733 37.6635 45.9894 37.6253C47.8371 37.3499 49.6756 37.0162 51.5021 36.6245C51.8608 35.1091 52.0415 33.5571 52.0406 31.9998C52.0406 30.6518 51.9056 29.3031 51.6395 27.9911C51.588 27.737 51.6395 27.4728 51.7827 27.2567C51.9259 27.0406 52.1492 26.8902 52.4032 26.8387C52.529 26.8132 52.6586 26.8127 52.7846 26.8372C52.9106 26.8618 53.0305 26.9109 53.1375 26.9818C53.2445 27.0527 53.3365 27.144 53.4082 27.2504C53.48 27.3569 53.53 27.4764 53.5555 27.6022Z" fill="#C16B15"/>
</svg>
