<svg width="64" height="64" viewBox="0 0 64 64" fill="none" xmlns="http://www.w3.org/2000/svg">
<path d="M53.8974 12.6739C52.5432 11.2511 50.9186 10.1064 49.1166 9.30548C47.3146 8.50452 45.3705 8.06302 43.3957 8.00624C41.4209 7.94947 39.4542 8.27854 37.6081 8.97461C35.7621 9.67068 34.073 10.7201 32.6376 12.0627L31.9798 12.6774C26.282 6.70055 16.7654 6.42365 10.7226 12.0584C4.67896 17.6941 4.39901 27.1077 10.096 33.0845L11.5772 34.637C11.27 35.3406 11.1565 36.1121 11.2485 36.873C11.3405 37.634 11.6345 38.3573 12.1007 38.9695C12.5669 39.5816 13.1887 40.0607 13.9028 40.3581C14.617 40.6555 15.398 40.7606 16.1665 40.6627C16.0359 41.3348 16.0687 42.028 16.2621 42.6852C16.4556 43.3424 16.8041 43.9447 17.279 44.4425C17.754 44.9402 18.3417 45.3193 18.9938 45.5484C19.6459 45.7774 20.3436 45.85 21.0296 45.76C20.8991 46.432 20.9318 47.1251 21.1252 47.7822C21.3186 48.4392 21.6671 49.0414 22.1419 49.5391C22.6168 50.0368 23.2044 50.4158 23.8564 50.6449C24.5084 50.8739 25.2061 50.9464 25.8919 50.8564C25.7239 51.759 25.8485 52.6912 26.2479 53.5196C26.6473 54.3481 27.3012 55.0305 28.1161 55.4695C28.9311 55.9085 29.8654 56.0816 30.7857 55.9641C31.7061 55.8466 32.5653 55.4445 33.2408 54.8152C38.1872 50.1963 38.0321 50.4269 38.4992 49.6485C39.2093 49.9941 40.0008 50.1428 40.7895 50.0788C41.5783 50.0148 42.3347 49.7405 42.9783 49.2851C43.6219 48.8296 44.1287 48.2101 44.4446 47.4925C44.7606 46.7748 44.8739 45.9859 44.7725 45.2096C45.4521 45.3356 46.1521 45.3007 46.8153 45.1077C47.4786 44.9148 48.0863 44.5694 48.5886 44.0996C49.091 43.6299 49.4739 43.0492 49.7059 42.4051C49.9379 41.7609 50.0124 41.0716 49.9235 40.3935C50.8412 40.5602 51.7887 40.4343 52.6294 40.0337C53.47 39.6332 54.1602 38.9788 54.6003 38.165C55.0405 37.3513 55.2078 36.4202 55.0782 35.5063C54.9486 34.5923 54.5287 33.7428 53.8792 33.0802C59.3672 27.364 59.375 18.3996 53.8974 12.6739ZM13.6807 38.1766C13.1944 37.6655 12.9327 36.9845 12.9532 36.2829C12.9737 35.5813 13.2746 34.9163 13.7899 34.4338L18.2969 30.2247C18.8147 29.7516 19.5003 29.4997 20.2048 29.5236C20.9094 29.5476 21.5759 29.8455 22.0596 30.3527C22.5434 30.8598 22.8053 31.5352 22.7885 32.2323C22.7717 32.9293 22.4776 33.5917 21.97 34.0755L17.4631 38.2846C16.9467 38.7658 16.2584 39.0247 15.5493 39.0044C14.8402 38.9842 14.1681 38.6865 13.6807 38.1766ZM18.5439 43.2739C18.0571 42.763 17.7952 42.0819 17.8157 41.3802C17.8361 40.6784 18.1373 40.0134 18.6531 39.5311L23.16 35.3219C23.4156 35.0834 23.7162 34.8971 24.0446 34.7735C24.373 34.6499 24.7228 34.5915 25.074 34.6016C25.4252 34.6117 25.771 34.6901 26.0916 34.8324C26.4122 34.9747 26.7013 35.178 26.9424 35.4308C27.1835 35.6836 27.3719 35.9809 27.4969 36.3057C27.6219 36.6305 27.6809 36.9765 27.6707 37.3239C27.6605 37.6713 27.5812 38.0133 27.4373 38.3304C27.2935 38.6475 27.0879 38.9334 26.8323 39.1719L22.3254 43.3819C21.8084 43.8621 21.12 44.1199 20.4112 44.0988C19.7023 44.0778 19.0308 43.7796 18.5439 43.2696V43.2739ZM23.4062 48.3703C22.92 47.8592 22.6585 47.1783 22.6792 46.4768C22.6998 45.7754 23.0008 45.1106 23.5163 44.6284L28.0232 40.4192C28.5437 39.9673 29.2211 39.7326 29.9129 39.7644C30.6048 39.7963 31.2571 40.0923 31.7329 40.5902C32.2086 41.088 32.4706 41.749 32.4638 42.434C32.457 43.119 32.1819 43.7747 31.6964 44.2632L27.1894 48.4723C26.6734 48.9544 25.985 49.214 25.2755 49.1941C24.5661 49.1742 23.8936 48.8763 23.4062 48.366V48.3703ZM32.0517 53.5756C31.5355 54.0574 30.847 54.3166 30.1376 54.2963C29.4282 54.276 28.756 53.9777 28.2689 53.4672C27.7818 52.9566 27.5197 52.2756 27.5403 51.574C27.5608 50.8723 27.8624 50.2074 28.3785 49.7257L32.8855 45.5156C33.4033 45.0426 34.0889 44.7906 34.7935 44.8146C35.498 44.8386 36.1645 45.1365 36.6482 45.6436C37.132 46.1508 37.3939 46.8262 37.3771 47.5233C37.3604 48.2203 37.0662 48.8827 36.5586 49.3665L32.0517 53.5756ZM52.5522 38.0446C52.2972 38.2839 51.9968 38.4709 51.6685 38.5951C51.3401 38.7192 50.9902 38.7779 50.6388 38.7679C50.2874 38.7578 49.9415 38.6792 49.6209 38.5366C49.3003 38.3939 49.0114 38.19 48.7707 37.9366L37.2208 25.8321C37.063 25.6666 36.8452 25.57 36.6154 25.5634C36.3856 25.5568 36.1625 25.6408 35.9953 25.7969C35.8281 25.953 35.7304 26.1684 35.7237 26.3957C35.717 26.623 35.8019 26.8437 35.9597 27.0091L47.5123 39.1128C47.9995 39.6232 48.2617 40.3041 48.2413 41.0058C48.2209 41.7075 47.9195 42.3724 47.4035 42.8543C46.8874 43.3362 46.199 43.5956 45.4896 43.5754C44.7801 43.5552 44.1079 43.2571 43.6207 42.7467L32.069 30.6413C31.9909 30.5594 31.8972 30.4935 31.7933 30.4474C31.6895 30.4013 31.5774 30.3759 31.4636 30.3727C31.3498 30.3694 31.2365 30.3883 31.1301 30.4284C31.0237 30.4685 30.9263 30.5289 30.8435 30.6061C30.7607 30.6834 30.6941 30.7761 30.6475 30.8788C30.6009 30.9816 30.5752 31.0924 30.5719 31.205C30.5686 31.3175 30.5878 31.4296 30.6283 31.5349C30.6688 31.6401 30.7298 31.7364 30.808 31.8183L42.3561 43.9203C42.7973 44.3822 43.0554 44.9859 43.0834 45.6207C43.1113 46.2555 42.9071 46.8791 42.5083 47.3772C42.1094 47.8753 41.5425 48.2146 40.9113 48.3331C40.2801 48.4516 39.6269 48.3412 39.0713 48.0223C39.1602 47.4169 39.1183 46.7997 38.9483 46.2114C38.7784 45.6232 38.4843 45.0773 38.0855 44.6097C37.6866 44.1421 37.192 43.7635 36.6344 43.4988C36.0767 43.2341 35.4687 43.0894 34.8503 43.0742C33.897 43.0493 34.2436 43.4059 34.2679 42.4629C34.285 41.8903 34.1878 41.32 33.9819 40.7846C33.7761 40.2492 33.4655 39.7592 33.068 39.3425C32.6705 38.9259 32.1939 38.5909 31.6654 38.3565C31.137 38.1222 30.567 37.9932 29.988 37.9769C29.0347 37.9469 29.377 38.3198 29.4056 37.3657C29.4225 36.7931 29.3251 36.2228 29.1191 35.6874C28.9131 35.152 28.6024 34.6621 28.2049 34.2455C27.8074 33.8289 27.3307 33.4938 26.8023 33.2595C26.2738 33.0251 25.7038 32.896 25.1249 32.8796C24.1654 32.853 24.5138 33.2302 24.5424 32.2684C24.5653 31.4071 24.3301 30.5584 23.8663 29.8292C23.4026 29.0999 22.731 28.5226 21.9363 28.17C21.1415 27.8175 20.259 27.7053 19.4 27.8478C18.5409 27.9902 17.7437 28.3808 17.1086 28.9705C10.9115 34.7561 13.0497 32.7622 12.5878 33.1934L11.3588 31.9075C6.3188 26.6199 6.56668 18.2924 11.9135 13.3066C17.2594 8.32163 25.6787 8.56766 30.7187 13.8561L23.6203 20.4862C22.9471 21.1246 22.5509 21.9965 22.5152 22.9182C22.4285 26.439 27.7233 28.6559 30.9588 25.6272L37.428 19.5886C37.5107 19.5113 37.608 19.4508 37.7144 19.4106C37.8208 19.3705 37.9341 19.3514 38.0479 19.3546C38.1617 19.3578 38.2738 19.3831 38.3777 19.4292C38.4816 19.4752 38.5753 19.541 38.6535 19.6229L52.6614 34.3044C52.9027 34.557 53.0913 34.8543 53.2164 35.1791C53.3415 35.5039 53.4007 35.8499 53.3906 36.1973C53.3804 36.5447 53.3012 36.8868 53.1573 37.2039C53.0135 37.521 52.8079 37.8061 52.5522 38.0446ZM52.7004 31.8466L39.9137 18.445C39.6793 18.1994 39.3983 18.0019 39.0867 17.8637C38.7751 17.7256 38.4391 17.6495 38.0977 17.6397C37.7564 17.63 37.4165 17.6869 37.0974 17.8071C36.7783 17.9274 36.4863 18.1086 36.238 18.3404L29.7679 24.3807C29.4277 24.6983 29.0274 24.9464 28.59 25.1107C28.1526 25.2749 27.6868 25.3521 27.2192 25.3379C26.7515 25.3236 26.2914 25.2182 25.865 25.0276C25.4387 24.837 25.0546 24.565 24.7349 24.2273C24.5739 24.0584 24.4481 23.8598 24.3648 23.6429C24.2816 23.4259 24.2424 23.1948 24.2495 22.9628C24.2567 22.7309 24.3101 22.5026 24.4066 22.291C24.5031 22.0795 24.6409 21.8888 24.812 21.7301L33.8259 13.3092C39.0461 8.42107 47.2479 8.51794 52.3485 13.5278C57.4501 18.5376 57.6052 26.649 52.7004 31.8466Z" fill="#C16B15"/>
</svg>
