<svg width="64" height="64" viewBox="0 0 64 64" fill="none" xmlns="http://www.w3.org/2000/svg">
<path d="M49.6449 45.3022C46.9386 37.6255 44.0588 29.1685 32.001 29.1685C26.6301 29.1685 22.6024 30.859 19.6876 34.3367C17.1594 37.3531 15.7982 41.2142 14.3571 45.3022C12.6659 50.1129 16.821 54.8216 21.7304 53.8785C25.7914 53.0975 31.369 51.7816 39.3409 53.3149L42.2715 53.8785C47.1292 54.8125 51.3503 50.1534 49.6449 45.3022ZM42.8065 51.0976C38.6613 50.3004 32.646 48.8957 24.1263 50.5339L21.1956 51.0976C18.4278 51.63 16.0624 48.977 17.0279 46.2437C19.7222 38.6008 22.0492 32.0004 32.001 32.0004C41.9529 32.0004 44.2798 38.6009 46.9742 46.2438C47.9406 48.9796 45.5708 51.6299 42.8065 51.0976ZM43.8892 22.5764C46.0363 19.7137 46.0381 15.1987 43.8892 12.3336C41.5554 9.22176 37.5493 9.22252 35.216 12.3336C33.0689 15.1962 33.0671 19.7113 35.216 22.5764C37.5498 25.6882 41.5559 25.6874 43.8892 22.5764ZM39.5526 12.8296C41.2411 12.8296 42.6676 14.9478 42.6676 17.455C42.6676 19.9622 41.2411 22.0803 39.5526 22.0803C37.8641 22.0803 36.4376 19.9622 36.4376 17.455C36.4376 14.9478 37.8641 12.8296 39.5526 12.8296ZM28.786 22.5764C30.9331 19.7137 30.9349 15.1987 28.786 12.3336C26.4522 9.22176 22.4462 9.22252 20.1128 12.3336C17.9657 15.1962 17.9639 19.7113 20.1128 22.5764C22.4467 25.6882 26.4528 25.6874 28.786 22.5764ZM24.4494 12.8296C26.138 12.8296 27.5645 14.9478 27.5645 17.455C27.5645 19.9622 26.138 22.0803 24.4494 22.0803C22.7609 22.0803 21.3344 19.9622 21.3344 17.455C21.3344 14.9478 22.7609 12.8296 24.4494 12.8296ZM18.2194 27.272C18.2194 24.4093 15.8904 22.0803 13.0277 22.0803C10.1649 22.0803 7.83594 24.4093 7.83594 27.272C7.83594 30.1347 10.1649 32.4637 13.0277 32.4637C15.8904 32.4637 18.2194 30.1347 18.2194 27.272ZM13.0277 29.6319C11.7264 29.6319 10.6678 28.5733 10.6678 27.272C10.6678 25.9708 11.7264 24.9122 13.0277 24.9122C14.3289 24.9122 15.3875 25.9708 15.3875 27.272C15.3875 28.5733 14.3289 29.6319 13.0277 29.6319ZM50.9744 22.0803C48.1117 22.0803 45.7827 24.4093 45.7827 27.272C45.7827 30.1347 48.1117 32.4637 50.9744 32.4637C53.8371 32.4637 56.1661 30.1347 56.1661 27.272C56.1661 24.4093 53.8371 22.0803 50.9744 22.0803ZM50.9744 29.6319C49.6731 29.6319 48.6145 28.5733 48.6145 27.272C48.6145 25.9708 49.6731 24.9122 50.9744 24.9122C52.2756 24.9122 53.3342 25.9708 53.3342 27.272C53.3342 28.5733 52.2756 29.6319 50.9744 29.6319Z" fill="#C16B15"/>
<path d="M35.7768 40.2041H33.4169V37.8443C33.4169 37.0623 32.783 36.4283 32.001 36.4283C31.219 36.4283 30.5851 37.0623 30.5851 37.8443V40.2041H28.2252C27.4433 40.2041 26.8093 40.8381 26.8093 41.62C26.8093 42.402 27.4433 43.036 28.2252 43.036H30.5851V45.3958C30.5851 46.1778 31.219 46.8118 32.001 46.8118C32.783 46.8118 33.4169 46.1778 33.4169 45.3958V43.036H35.7768C36.5588 43.036 37.1927 42.402 37.1927 41.62C37.1927 40.8381 36.5588 40.2041 35.7768 40.2041Z" fill="#C16B15"/>
</svg>
