<svg width="40" height="40" viewBox="0 0 40 40" fill="none" xmlns="http://www.w3.org/2000/svg">
<g clip-path="url(#clip0_50663_674)">
<path d="M29.5478 12.9598L29.7655 11.1184L20.8838 20L29.7655 28.8817L29.5479 27.0402C29.5284 26.8756 29.5752 26.71 29.6778 26.5798C29.7805 26.4497 29.9306 26.3656 30.0952 26.3462C30.2599 26.3267 30.4255 26.3735 30.5556 26.4761C30.6858 26.5787 30.7698 26.7289 30.7893 26.8935L31.2185 30.5244C31.2296 30.6182 31.2193 30.7133 31.1883 30.8025C31.1574 30.8918 31.1066 30.9729 31.0398 31.0397C30.973 31.1065 30.8919 31.1573 30.8027 31.1882C30.7134 31.2192 30.6183 31.2295 30.5245 31.2184L26.8936 30.7893C26.8121 30.7797 26.7333 30.7541 26.6616 30.714C26.59 30.6739 26.527 30.6201 26.4762 30.5556C26.4253 30.4912 26.3877 30.4173 26.3654 30.3384C26.3431 30.2594 26.3366 30.1767 26.3462 30.0952C26.3558 30.0137 26.3814 29.9349 26.4215 29.8632C26.4616 29.7916 26.5154 29.7285 26.5798 29.6777C26.6443 29.6269 26.7181 29.5892 26.7972 29.567C26.8762 29.5447 26.9588 29.5382 27.0403 29.5479L28.8817 29.7655L20 20.8838L11.1183 29.7655L12.9598 29.5479C13.1244 29.5284 13.29 29.5752 13.4202 29.6778C13.5503 29.7805 13.6344 29.9306 13.6538 30.0952C13.6733 30.2599 13.6265 30.4255 13.5239 30.5556C13.4213 30.6858 13.2711 30.7698 13.1065 30.7893L9.47563 31.2185C9.38182 31.2296 9.28673 31.2192 9.19749 31.1883C9.10826 31.1573 9.02719 31.1065 8.96039 31.0398C8.89359 30.973 8.8428 30.8919 8.81184 30.8026C8.78088 30.7134 8.77055 30.6183 8.78164 30.5245L9.21078 26.8936C9.22035 26.8121 9.24591 26.7332 9.28598 26.6616C9.32606 26.5899 9.37986 26.5269 9.44433 26.476C9.50879 26.4252 9.58265 26.3876 9.66167 26.3653C9.74069 26.343 9.82332 26.3365 9.90484 26.3462C9.98636 26.3559 10.0652 26.3815 10.1368 26.4216C10.2084 26.4617 10.2714 26.5155 10.3223 26.5799C10.3731 26.6444 10.4107 26.7182 10.433 26.7972C10.4553 26.8762 10.4618 26.9588 10.4522 27.0403L10.2345 28.8817L19.1161 20L10.2345 11.1184L10.4521 12.9598C10.4625 13.0476 10.4542 13.1365 10.4277 13.2208C10.4011 13.3051 10.3571 13.3828 10.2984 13.4488C10.2396 13.5147 10.1676 13.5675 10.087 13.6037C10.0063 13.6398 9.91897 13.6584 9.83063 13.6583C9.67769 13.6581 9.53013 13.6018 9.41588 13.5002C9.30163 13.3985 9.22863 13.2584 9.2107 13.1066L8.78148 9.4757C8.77039 9.38188 8.78071 9.28677 8.81167 9.19751C8.84263 9.10826 8.89342 9.02718 8.96022 8.96038C9.02702 8.89357 9.1081 8.84278 9.19736 8.81183C9.28661 8.78087 9.38173 8.77055 9.47555 8.78164L13.1065 9.21078C13.2711 9.23024 13.4213 9.31429 13.5239 9.44445C13.6265 9.57462 13.6733 9.74022 13.6538 9.90484C13.6344 10.0695 13.5503 10.2196 13.4202 10.3223C13.29 10.4249 13.1244 10.4716 12.9598 10.4522L11.1184 10.2345L20 19.1161L28.8816 10.2345L27.0402 10.4521C26.6976 10.4928 26.3867 10.2476 26.3462 9.90477C26.3365 9.82325 26.343 9.74064 26.3653 9.66165C26.3876 9.58265 26.4253 9.50882 26.4761 9.44437C26.5269 9.37992 26.5899 9.32611 26.6616 9.28602C26.7332 9.24593 26.812 9.22033 26.8935 9.2107L30.5244 8.78148C30.6182 8.77039 30.7133 8.78071 30.8026 8.81167C30.8918 8.84263 30.9729 8.89342 31.0397 8.96022C31.1065 9.02702 31.1573 9.1081 31.1883 9.19736C31.2192 9.28661 31.2295 9.38173 31.2184 9.47555L30.7893 13.1064C30.7698 13.271 30.6857 13.4211 30.5556 13.5238C30.4254 13.6264 30.2598 13.6732 30.0952 13.6538C30.0137 13.6441 29.9349 13.6185 29.8633 13.5785C29.7917 13.5384 29.7286 13.4846 29.6778 13.4201C29.627 13.3557 29.5893 13.2819 29.567 13.2029C29.5447 13.1239 29.5382 13.0413 29.5478 12.9598ZM6.52047 0.625V5.89547C6.52047 6.06123 6.45462 6.2202 6.33741 6.33741C6.2202 6.45462 6.06123 6.52047 5.89547 6.52047H0.625C0.45924 6.52047 0.300269 6.45462 0.183058 6.33741C0.065848 6.2202 0 6.06123 0 5.89547V0.625C0 0.45924 0.065848 0.300269 0.183058 0.183058C0.300269 0.065848 0.45924 0 0.625 0L5.89547 0C6.06123 0 6.2202 0.065848 6.33741 0.183058C6.45462 0.300269 6.52047 0.45924 6.52047 0.625ZM5.27047 1.25H1.25V5.27047H5.27047V1.25ZM6.52047 34.1045V39.375C6.52047 39.5408 6.45462 39.6997 6.33741 39.8169C6.2202 39.9342 6.06123 40 5.89547 40H0.625C0.45924 40 0.300269 39.9342 0.183058 39.8169C0.065848 39.6997 0 39.5408 0 39.375V34.1045C0 33.9388 0.065848 33.7798 0.183058 33.6626C0.300269 33.5454 0.45924 33.4795 0.625 33.4795H5.89547C6.06123 33.4795 6.2202 33.5454 6.33741 33.6626C6.45462 33.7798 6.52047 33.9388 6.52047 34.1045ZM5.27047 34.7295H1.25V38.75H5.27047V34.7295ZM40 0.625V5.89547C40 6.06123 39.9342 6.2202 39.8169 6.33741C39.6997 6.45462 39.5408 6.52047 39.375 6.52047H34.1045C33.9388 6.52047 33.7798 6.45462 33.6626 6.33741C33.5454 6.2202 33.4795 6.06123 33.4795 5.89547V0.625C33.4795 0.45924 33.5454 0.300269 33.6626 0.183058C33.7798 0.065848 33.9388 0 34.1045 0L39.375 0C39.5408 0 39.6997 0.065848 39.8169 0.183058C39.9342 0.300269 40 0.45924 40 0.625ZM38.75 1.25H34.7295V5.27047H38.75V1.25ZM40 34.1045V39.375C40 39.5408 39.9342 39.6997 39.8169 39.8169C39.6997 39.9342 39.5408 40 39.375 40H34.1045C33.9388 40 33.7798 39.9342 33.6626 39.8169C33.5454 39.6997 33.4795 39.5408 33.4795 39.375V34.1045C33.4795 33.9388 33.5454 33.7798 33.6626 33.6626C33.7798 33.5454 33.9388 33.4795 34.1045 33.4795H39.375C39.5408 33.4795 39.6997 33.5454 39.8169 33.6626C39.9342 33.7798 40 33.9388 40 34.1045ZM38.75 34.7295H34.7295V38.75H38.75V34.7295ZM8.40094 3.88523H11.0362C11.2019 3.88523 11.3609 3.81939 11.4781 3.70218C11.5953 3.58497 11.6612 3.42599 11.6612 3.26023C11.6612 3.09447 11.5953 2.9355 11.4781 2.81829C11.3609 2.70108 11.2019 2.63523 11.0362 2.63523H8.40094C8.23518 2.63523 8.07621 2.70108 7.959 2.81829C7.84179 2.9355 7.77594 3.09447 7.77594 3.26023C7.77594 3.42599 7.84179 3.58497 7.959 3.70218C8.07621 3.81939 8.23518 3.88523 8.40094 3.88523ZM13.5416 3.88523H16.1769C16.3426 3.88523 16.5016 3.81939 16.6188 3.70218C16.736 3.58497 16.8019 3.42599 16.8019 3.26023C16.8019 3.09447 16.736 2.9355 16.6188 2.81829C16.5016 2.70108 16.3426 2.63523 16.1769 2.63523H13.5416C13.3759 2.63523 13.2169 2.70108 13.0997 2.81829C12.9825 2.9355 12.9166 3.09447 12.9166 3.26023C12.9166 3.42599 12.9825 3.58497 13.0997 3.70218C13.2169 3.81939 13.3759 3.88523 13.5416 3.88523ZM18.6823 3.88523H21.3176C21.4833 3.88523 21.6423 3.81939 21.7595 3.70218C21.8767 3.58497 21.9426 3.42599 21.9426 3.26023C21.9426 3.09447 21.8767 2.9355 21.7595 2.81829C21.6423 2.70108 21.4833 2.63523 21.3176 2.63523H18.6823C18.5166 2.63523 18.3576 2.70108 18.2404 2.81829C18.1232 2.9355 18.0573 3.09447 18.0573 3.26023C18.0573 3.42599 18.1232 3.58497 18.2404 3.70218C18.3576 3.81939 18.5166 3.88523 18.6823 3.88523ZM23.8231 3.88523H26.4584C26.6241 3.88523 26.7831 3.81939 26.9003 3.70218C27.0175 3.58497 27.0834 3.42599 27.0834 3.26023C27.0834 3.09447 27.0175 2.9355 26.9003 2.81829C26.7831 2.70108 26.6241 2.63523 26.4584 2.63523H23.8231C23.6574 2.63523 23.4984 2.70108 23.3812 2.81829C23.264 2.9355 23.1981 3.09447 23.1981 3.26023C23.1981 3.42599 23.264 3.58497 23.3812 3.70218C23.4984 3.81939 23.6574 3.88523 23.8231 3.88523ZM31.5991 2.63523H28.9638C28.7981 2.63523 28.6391 2.70108 28.5219 2.81829C28.4047 2.9355 28.3388 3.09447 28.3388 3.26023C28.3388 3.42599 28.4047 3.58497 28.5219 3.70218C28.6391 3.81939 28.7981 3.88523 28.9638 3.88523H31.5991C31.7648 3.88523 31.9238 3.81939 32.041 3.70218C32.1582 3.58497 32.2241 3.42599 32.2241 3.26023C32.2241 3.09447 32.1582 2.9355 32.041 2.81829C31.9238 2.70108 31.7648 2.63523 31.5991 2.63523ZM11.0363 36.1148H8.40102C8.23526 36.1148 8.07628 36.1806 7.95907 36.2978C7.84186 36.415 7.77602 36.574 7.77602 36.7398C7.77602 36.9055 7.84186 37.0645 7.95907 37.1817C8.07628 37.2989 8.23526 37.3648 8.40102 37.3648H11.0363C11.202 37.3648 11.361 37.2989 11.4782 37.1817C11.5954 37.0645 11.6613 36.9055 11.6613 36.7398C11.6613 36.574 11.5954 36.415 11.4782 36.2978C11.361 36.1806 11.202 36.1148 11.0363 36.1148ZM16.1769 36.1148H13.5416C13.3759 36.1148 13.2169 36.1806 13.0997 36.2978C12.9825 36.415 12.9166 36.574 12.9166 36.7398C12.9166 36.9055 12.9825 37.0645 13.0997 37.1817C13.2169 37.2989 13.3759 37.3648 13.5416 37.3648H16.1769C16.3426 37.3648 16.5016 37.2989 16.6188 37.1817C16.736 37.0645 16.8019 36.9055 16.8019 36.7398C16.8019 36.574 16.736 36.415 16.6188 36.2978C16.5016 36.1806 16.3426 36.1148 16.1769 36.1148ZM21.3177 36.1148H18.6824C18.5167 36.1148 18.3577 36.1806 18.2405 36.2978C18.1233 36.415 18.0574 36.574 18.0574 36.7398C18.0574 36.9055 18.1233 37.0645 18.2405 37.1817C18.3577 37.2989 18.5167 37.3648 18.6824 37.3648H21.3177C21.4834 37.3648 21.6424 37.2989 21.7596 37.1817C21.8768 37.0645 21.9427 36.9055 21.9427 36.7398C21.9427 36.574 21.8768 36.415 21.7596 36.2978C21.6424 36.1806 21.4834 36.1148 21.3177 36.1148ZM26.4584 36.1148H23.8231C23.6574 36.1148 23.4984 36.1806 23.3812 36.2978C23.264 36.415 23.1981 36.574 23.1981 36.7398C23.1981 36.9055 23.264 37.0645 23.3812 37.1817C23.4984 37.2989 23.6574 37.3648 23.8231 37.3648H26.4584C26.6241 37.3648 26.7831 37.2989 26.9003 37.1817C27.0175 37.0645 27.0834 36.9055 27.0834 36.7398C27.0834 36.574 27.0175 36.415 26.9003 36.2978C26.7831 36.1806 26.6241 36.1148 26.4584 36.1148ZM31.5991 36.1148H28.9638C28.7981 36.1148 28.6391 36.1806 28.5219 36.2978C28.4047 36.415 28.3388 36.574 28.3388 36.7398C28.3388 36.9055 28.4047 37.0645 28.5219 37.1817C28.6391 37.2989 28.7981 37.3648 28.9638 37.3648H31.5991C31.7648 37.3648 31.9238 37.2989 32.041 37.1817C32.1582 37.0645 32.2241 36.9055 32.2241 36.7398C32.2241 36.574 32.1582 36.415 32.041 36.2978C31.9238 36.1806 31.7648 36.1148 31.5991 36.1148ZM36.7398 11.6613C36.9055 11.6613 37.0645 11.5954 37.1817 11.4782C37.2989 11.361 37.3648 11.202 37.3648 11.0363V8.40102C37.3648 8.23526 37.2989 8.07628 37.1817 7.95907C37.0645 7.84186 36.9055 7.77602 36.7398 7.77602C36.574 7.77602 36.415 7.84186 36.2978 7.95907C36.1806 8.07628 36.1148 8.23526 36.1148 8.40102V11.0363C36.1148 11.202 36.1806 11.361 36.2978 11.4782C36.415 11.5954 36.574 11.6613 36.7398 11.6613ZM36.1148 16.1769C36.1148 16.3426 36.1806 16.5016 36.2978 16.6188C36.415 16.736 36.574 16.8019 36.7398 16.8019C36.9055 16.8019 37.0645 16.736 37.1817 16.6188C37.2989 16.5016 37.3648 16.3426 37.3648 16.1769V13.5416C37.3648 13.3759 37.2989 13.2169 37.1817 13.0997C37.0645 12.9825 36.9055 12.9166 36.7398 12.9166C36.574 12.9166 36.415 12.9825 36.2978 13.0997C36.1806 13.2169 36.1148 13.3759 36.1148 13.5416V16.1769ZM36.1148 21.3177C36.1148 21.4834 36.1806 21.6424 36.2978 21.7596C36.415 21.8768 36.574 21.9427 36.7398 21.9427C36.9055 21.9427 37.0645 21.8768 37.1817 21.7596C37.2989 21.6424 37.3648 21.4834 37.3648 21.3177V18.6824C37.3648 18.5167 37.2989 18.3577 37.1817 18.2405C37.0645 18.1233 36.9055 18.0574 36.7398 18.0574C36.574 18.0574 36.415 18.1233 36.2978 18.2405C36.1806 18.3577 36.1148 18.5167 36.1148 18.6824V21.3177ZM36.1148 26.4584C36.1148 26.6241 36.1806 26.7831 36.2978 26.9003C36.415 27.0175 36.574 27.0834 36.7398 27.0834C36.9055 27.0834 37.0645 27.0175 37.1817 26.9003C37.2989 26.7831 37.3648 26.6241 37.3648 26.4584V23.8231C37.3648 23.6574 37.2989 23.4984 37.1817 23.3812C37.0645 23.264 36.9055 23.1981 36.7398 23.1981C36.574 23.1981 36.415 23.264 36.2978 23.3812C36.1806 23.4984 36.1148 23.6574 36.1148 23.8231V26.4584ZM36.1148 31.5991C36.1148 31.7648 36.1806 31.9238 36.2978 32.041C36.415 32.1582 36.574 32.2241 36.7398 32.2241C36.9055 32.2241 37.0645 32.1582 37.1817 32.041C37.2989 31.9238 37.3648 31.7648 37.3648 31.5991V28.9638C37.3648 28.7981 37.2989 28.6391 37.1817 28.5219C37.0645 28.4047 36.9055 28.3388 36.7398 28.3388C36.574 28.3388 36.415 28.4047 36.2978 28.5219C36.1806 28.6391 36.1148 28.7981 36.1148 28.9638V31.5991ZM3.26023 11.6613C3.42599 11.6613 3.58497 11.5954 3.70218 11.4782C3.81939 11.361 3.88523 11.202 3.88523 11.0363V8.40102C3.88523 8.23526 3.81939 8.07628 3.70218 7.95907C3.58497 7.84186 3.42599 7.77602 3.26023 7.77602C3.09447 7.77602 2.9355 7.84186 2.81829 7.95907C2.70108 8.07628 2.63523 8.23526 2.63523 8.40102V11.0363C2.63523 11.202 2.70108 11.361 2.81829 11.4782C2.9355 11.5954 3.09447 11.6613 3.26023 11.6613ZM2.63523 16.1769C2.63523 16.3426 2.70108 16.5016 2.81829 16.6188C2.9355 16.736 3.09447 16.8019 3.26023 16.8019C3.42599 16.8019 3.58497 16.736 3.70218 16.6188C3.81939 16.5016 3.88523 16.3426 3.88523 16.1769V13.5416C3.88523 13.3759 3.81939 13.2169 3.70218 13.0997C3.58497 12.9825 3.42599 12.9166 3.26023 12.9166C3.09447 12.9166 2.9355 12.9825 2.81829 13.0997C2.70108 13.2169 2.63523 13.3759 2.63523 13.5416V16.1769ZM2.63523 21.3177C2.63523 21.4834 2.70108 21.6424 2.81829 21.7596C2.9355 21.8768 3.09447 21.9427 3.26023 21.9427C3.42599 21.9427 3.58497 21.8768 3.70218 21.7596C3.81939 21.6424 3.88523 21.4834 3.88523 21.3177V18.6824C3.88523 18.5167 3.81939 18.3577 3.70218 18.2405C3.58497 18.1233 3.42599 18.0574 3.26023 18.0574C3.09447 18.0574 2.9355 18.1233 2.81829 18.2405C2.70108 18.3577 2.63523 18.5167 2.63523 18.6824V21.3177ZM2.63523 26.4584C2.63523 26.6241 2.70108 26.7831 2.81829 26.9003C2.9355 27.0175 3.09447 27.0834 3.26023 27.0834C3.42599 27.0834 3.58497 27.0175 3.70218 26.9003C3.81939 26.7831 3.88523 26.6241 3.88523 26.4584V23.8231C3.88523 23.6574 3.81939 23.4984 3.70218 23.3812C3.58497 23.264 3.42599 23.1981 3.26023 23.1981C3.09447 23.1981 2.9355 23.264 2.81829 23.3812C2.70108 23.4984 2.63523 23.6574 2.63523 23.8231V26.4584ZM2.63523 31.5991C2.63523 31.7648 2.70108 31.9238 2.81829 32.041C2.9355 32.1582 3.09447 32.2241 3.26023 32.2241C3.42599 32.2241 3.58497 32.1582 3.70218 32.041C3.81939 31.9238 3.88523 31.7648 3.88523 31.5991V28.9638C3.88523 28.7981 3.81939 28.6391 3.70218 28.5219C3.58497 28.4047 3.42599 28.3388 3.26023 28.3388C3.09447 28.3388 2.9355 28.4047 2.81829 28.5219C2.70108 28.6391 2.63523 28.7981 2.63523 28.9638V31.5991Z" fill="#C16B15"/>
</g>
<defs>
<clipPath id="clip0_50663_674">
<rect width="40" height="40" fill="white"/>
</clipPath>
</defs>
</svg>
