<svg width="200" height="142" viewBox="0 0 200 142" fill="none" xmlns="http://www.w3.org/2000/svg">
<path opacity="0.2" d="M200 15.8385C192.371 18.0231 185.468 21.482 179.292 26.2154C173.115 30.9487 167.847 36.4103 163.488 42.6C159.128 48.4256 155.858 54.7974 153.678 61.7154C151.499 68.6333 150.772 75.3692 151.499 81.9231H183.106C186.013 85.9282 188.374 90.4795 190.191 95.5769C192.007 100.674 192.916 105.226 192.916 109.231C192.916 115.421 192.007 121.428 190.191 127.254C188.374 132.715 186.013 137.631 183.106 142H122.071C116.258 128.528 112.988 115.603 112.262 103.223C112.262 82.4692 116.076 65.1743 123.706 51.3385C131.698 37.1385 141.326 25.8513 152.589 17.4769C164.214 8.73845 176.748 2.9128 190.191 0L200 15.8385ZM87.7384 15.8385C80.109 18.0231 73.2062 21.482 67.03 26.2154C60.8538 30.9487 55.5858 36.4103 51.2262 42.6C46.8665 48.4256 43.5967 54.7974 41.4169 61.7154C39.2371 68.6333 38.5104 75.3692 39.2371 81.9231H70.8447C73.7511 85.9282 76.1126 90.4795 77.9292 95.5769C79.7457 100.674 80.6539 105.226 80.6539 109.231C80.6539 115.421 79.7457 121.428 77.9292 127.254C76.1126 132.715 73.7511 137.631 70.8447 142H9.80926C3.99637 128.528 0.726614 115.603 0 103.223C0 82.4692 3.81471 65.1743 11.4441 51.3385C19.4369 37.1385 29.0645 25.8513 40.327 17.4769C51.9528 8.73845 64.4868 2.9128 77.9292 0L87.7384 15.8385Z" fill="#C16B15"/>
</svg>
