<svg width="52" height="52" viewBox="0 0 52 52" fill="none" xmlns="http://www.w3.org/2000/svg">
<rect width="52" height="52" rx="26" transform="matrix(-1 0 0 1 52 0)" fill="#253405" fill-opacity="0.4"/>
<path d="M22.4309 39.7413L33.8731 28.2991C34.4862 27.6859 34.8242 26.8691 34.8242 26.0003C34.8242 25.1314 34.4862 24.3168 33.8731 23.7014L22.4309 12.2593L20.8991 13.7911L32.3412 25.2333C32.4421 25.3339 32.5221 25.4535 32.5768 25.5851C32.6314 25.7167 32.6595 25.8578 32.6595 26.0003C32.6595 26.1428 32.6314 26.2839 32.5768 26.4155C32.5221 26.5471 32.4421 26.6666 32.3412 26.7673L20.8991 38.2094L22.4309 39.7413Z" fill="white"/>
</svg>
