<svg width="24" height="25" viewBox="0 0 24 25" fill="none" xmlns="http://www.w3.org/2000/svg">
<path d="M17.7108 9.99903L13.4108 5.70903C13.0361 5.33652 12.5292 5.12744 12.0008 5.12744C11.4724 5.12744 10.9655 5.33652 10.5908 5.70903L6.29079 9.99903C6.10454 10.1864 6 10.4398 6 10.704C6 10.9682 6.10454 11.2217 6.29079 11.409C6.38376 11.5028 6.49436 11.5771 6.61622 11.6279C6.73807 11.6787 6.86878 11.7048 7.00079 11.7048C7.1328 11.7048 7.26351 11.6787 7.38537 11.6279C7.50723 11.5771 7.61783 11.5028 7.71079 11.409L11.0008 8.11903V19.119C11.0008 19.3842 11.1061 19.6386 11.2937 19.8261C11.4812 20.0137 11.7356 20.119 12.0008 20.119C12.266 20.119 12.5204 20.0137 12.7079 19.8261C12.8954 19.6386 13.0008 19.3842 13.0008 19.119V8.11903L16.2908 11.409C16.4778 11.5973 16.7319 11.7036 16.9973 11.7046C17.2626 11.7055 17.5175 11.601 17.7058 11.414C17.8941 11.227 18.0004 10.9729 18.0013 10.7076C18.0023 10.4422 17.8978 10.1873 17.7108 9.99903Z" fill="white"/>
</svg>
